<?xml version="1.0" encoding="utf-8"?>
<!-- Generator: Adobe Illustrator 24.3.0, SVG Export Plug-In . SVG Version: 6.00 Build 0)  -->
<svg version="1.1"
	 id="svg3310" xmlns:cc="http://creativecommons.org/ns#" xmlns:dc="http://purl.org/dc/elements/1.1/" xmlns:inkscape="http://www.inkscape.org/namespaces/inkscape" xmlns:rdf="http://www.w3.org/1999/02/22-rdf-syntax-ns#" xmlns:svg="http://www.w3.org/2000/svg"
	 xmlns="http://www.w3.org/2000/svg" xmlns:xlink="http://www.w3.org/1999/xlink" x="0px" y="0px" width="74.9px" height="74.9px"
	 viewBox="0 0 74.9 74.9" style="enable-background:new 0 0 74.9 74.9;" xml:space="preserve">
<style type="text/css">
	.st0{fill:#E00034;}
	.st1{fill:#FFFFFF;}
</style>
<circle id="circle" class="st0" cx="37.45" cy="37.45" r="28.56"/>
<path class="st1" d="M36.21,49.2c-1.55,0-3.09,0-4.64,0c0-3.59,0-7.18,0-10.78c-3.35,0-6.68,0-10.03,0c0,3.59,0,7.18,0,10.77
	c-1.55,0-3.09,0-4.64,0c0-7.83,0-15.66,0-23.49c1.54,0,3.08,0,4.64,0c0,2.88,0,5.75,0,8.63c3.35,0,6.68,0,10.03,0
	c0-2.88,0-5.75,0-8.63c1.55,0,3.09,0,4.65,0C36.21,33.53,36.21,41.36,36.21,49.2z"/>
<path class="st1" d="M58,49.2c-1.55,0-3.09,0-4.64,0c0-3.59,0-7.18,0-10.78c-3.35,0-6.68,0-10.03,0c0,3.59,0,7.18,0,10.77
	c-1.55,0-3.09,0-4.64,0c0-7.83,0-15.66,0-23.49c1.54,0,3.08,0,4.64,0c0,2.88,0,5.75,0,8.63c3.35,0,6.68,0,10.03,0
	c0-2.88,0-5.75,0-8.63c1.55,0,3.09,0,4.65,0C58,33.53,58,41.36,58,49.2z"/>
</svg>
